<svg viewBox="0 0 345 51" fill="none" xmlns="http://www.w3.org/2000/svg"><g clip-path="url(#a)"><path fill-rule="evenodd" clip-rule="evenodd" d="m193.829 28.905-7.776-8.444a.706.706 0 0 0-.453-.194h-18.934c-.149 0-.193.088-.096.194l7.775 8.444c.02.02.009.057-.019.057h-.586a.158.158 0 0 1-.12-.061L151.778 4.93a.234.234 0 0 0-.351 0l-7.518 8.24a.437.437 0 0 1-.76-.295V11.74c0-.068.055-.123.123-.123.317 0 .577-.19.577-.418 0-.229-.26-.418-.577-.418h-5.396c-.317 0-.572.19-.572.418 0 .229.255.418.572.418.068 0 .123.055.123.123v7.743a.44.44 0 0 1-.114.294l-8.326 9.125c-.097.11-.053.193.101.193h4.489c.241 0 .437.196.437.437V49.36c0 .241.196.437.437.437h54.538a.438.438 0 0 0 .438-.437V29.531c0-.241.195-.437.437-.437h3.297c.154 0 .197-.083.096-.189zm-32.282 1.32a.263.263 0 0 1-.259.263h-4.372a.26.26 0 0 1-.259-.264v-5.889a.26.26 0 0 1 .259-.264h4.372c.141 0 .259.12.259.264v5.89zM271.29 50.24c9.025 0 15.323-9.412 15.323-19.598 0-10.19-6.298-19.602-15.323-19.602s-15.328 9.412-15.328 19.602c0 1.446.127 2.877.371 4.267a.444.444 0 0 1-.435.523h-.399a.447.447 0 0 0-.431.352c-2.28 10.31-7.498 11.928-11.821 11.928-2.595 0-3.716-.994-3.716-3.638V17.206c0-2.544.802-3.556 4.443-3.629a.446.446 0 0 0 .439-.441v-1a.438.438 0 0 0-.438-.436h-13.666a.437.437 0 0 0-.437.437v.999c0 .241.198.436.439.442 3.243.08 4.034 1.095 4.034 3.628v26.868c0 2.282-.642 3.335-3.209 3.58a.426.426 0 0 1-.091 0c-2.178-.266-3.232-1.503-4.551-5.176l-11.032-30.709a.437.437 0 0 0-.411-.29h-1.213a.437.437 0 0 0-.414.298l-10.169 30.098c-1.081 3.234-2.113 5.655-5.869 5.827a.454.454 0 0 0-.438.447v.995c0 .241.195.437.437.437h12.395a.437.437 0 0 0 .437-.437v-.995a.443.443 0 0 0-.438-.44c-4.002-.052-4.95-.843-4.95-2.86 0-.957.565-2.588 1.201-4.424.356-1.026.734-2.116 1.048-3.188a.44.44 0 0 1 .422-.319h11.384c.174 0 .332.104.4.265 1.339 3.167 2.733 7.367 2.733 8.488 0 1.537-.186 2.004-3.576 2.038a.442.442 0 0 0-.439.44v.995c0 .241.195.437.437.437h37.548c.238 0 .432-.19.437-.428l.2-9.287c.01-.51.885-.633 1.077-.16 2.468 6.088 7.385 10.534 13.589 10.534zm0-1.869c-6.769 0-9.874-5.783-9.874-17.729 0-11.95 3.105-17.733 9.874-17.733s9.869 5.784 9.869 17.733c0 11.946-3.1 17.73-9.869 17.73zm-53.566-13.766a.437.437 0 0 0 .41-.59l-4.747-12.756a.437.437 0 0 0-.822.008l-4.479 12.756c-.1.284.111.582.412.582h9.226z" fill="#fff"/><path d="M310.482 40.054a.066.066 0 0 1-.055-.03L292.266 11.9a.437.437 0 0 0-.367-.2h-8.121a.437.437 0 0 0-.437.438v.999c0 .241.196.437.437.44 2.219.028 3.129.323 4.603 2.133a.439.439 0 0 1 .097.274v28.091c0 2.548-.805 3.564-4.598 3.634a.445.445 0 0 0-.438.44v.996c0 .241.196.437.437.437h11.634a.437.437 0 0 0 .437-.437v-.995a.443.443 0 0 0-.438-.44c-4.091-.066-4.897-1.08-4.897-3.635v-24.71a.066.066 0 0 1 .121-.036l19.836 30.383a.438.438 0 0 0 .366.199h1.306a.437.437 0 0 0 .437-.438V17.206c0-2.531.794-3.546 3.986-3.627a.447.447 0 0 0 .438-.443v-1a.437.437 0 0 0-.437-.436h-10.719a.437.437 0 0 0-.437.437v.999c0 .241.197.437.438.441 3.793.07 4.598 1.081 4.598 3.629v22.783a.065.065 0 0 1-.066.065z" fill="#fff"/><path fill-rule="evenodd" clip-rule="evenodd" d="M331.43 47.184c-4.573 1.153-8.863-2.388-10.982-10.053a.435.435 0 0 1 .313-.536l16.681-4.213a.435.435 0 0 0 .311-.537c-2.517-9.022-8.791-12.323-15.027-10.747-6.712 1.694-10.191 9.58-8.189 17.254 1.996 7.67 8.906 12.935 15.617 11.242 5.62-1.417 7.965-4.555 9.417-8.781a.431.431 0 0 0-.255-.543l-.74-.285a.442.442 0 0 0-.57.254c-1.28 3.283-3.097 6.062-6.576 6.945zm-8.299-24.098c5.125-1.296 7.462 4.085 8.594 8.195a.433.433 0 0 1-.314.534l-11.167 2.82a.432.432 0 0 1-.527-.314c-1.023-4.141-1.612-9.968 3.414-11.235z" fill="#fff"/><path d="M94.867 12.274c0-.242.196-.438.437-.438h25.976c.233 0 .425.183.437.416l.597 11.837a.438.438 0 0 1-.437.459h-.698a.44.44 0 0 1-.434-.371c-.613-3.81-1.563-6.489-2.849-8.035-1.313-1.597-3.029-2.395-5.151-2.395h-6.638c-.534 0-.939.161-1.213.484-.275.323-.413.815-.413 1.478v12.987c0 .241.196.437.438.437h2.47c1.556 0 2.815-.62 3.777-1.86.922-1.17 1.443-2.93 1.562-5.281a.445.445 0 0 1 .442-.425h.718c.241 0 .437.196.437.438V38.58a.437.437 0 0 1-.437.437h-.717a.444.444 0 0 1-.441-.426c-.116-2.665-.645-4.587-1.587-5.764-.977-1.257-2.312-1.885-4.006-1.885h-2.218a.438.438 0 0 0-.438.437V45.92c0 .543.161.96.481 1.248.336.289.885.433 1.648.433h5.242c5.6 0 8.866-3.91 9.799-11.732a.444.444 0 0 1 .437-.393h.801c.248 0 .447.207.436.455l-.536 13.161a.438.438 0 0 1-.437.42H95.304a.437.437 0 0 1-.437-.437v-1.037c0-.241.196-.437.437-.437h1.875c.9 0 1.534-.17 1.9-.51.366-.356.55-.865.55-1.528V15.708c0-.662-.16-1.154-.481-1.477-.32-.323-.824-.484-1.511-.484h-2.333a.437.437 0 0 1-.437-.437v-1.036z" fill="#fff"/><path fill-rule="evenodd" clip-rule="evenodd" d="M80.005 11.836H62.953a.437.437 0 0 0-.437.438v1.036c0 .241.196.437.437.437h3.02c.595 0 1.06.161 1.396.484.336.306.504.722.504 1.248v30.34c0 .61-.16 1.06-.481 1.35-.305.288-.862.432-1.671.432h-2.768a.437.437 0 0 0-.437.437v1.037c0 .241.196.437.437.437h15.22c2.671 0 4.808-.289 6.41-.866 2.137-.782 3.945-1.953 5.426-3.516a14.743 14.743 0 0 0 3.319-5.477c.946-2.717 1.42-5.773 1.42-9.17 0-4.11-.794-7.667-2.382-10.673-1.572-3.006-3.487-5.154-5.745-6.445-1.816-1.019-4.022-1.529-6.616-1.529zm-6.753 2.395c.336-.323.847-.484 1.534-.484h3.846c3.387 0 5.92 1.231 7.6 3.694 1.968 2.92 2.953 7.523 2.953 13.806 0 4.246-.45 7.574-1.351 9.986-.656 1.783-1.618 3.167-2.884 4.152-1.939 1.477-4.197 2.216-6.776 2.216h-2.885c-.915 0-1.564-.153-1.945-.458-.382-.323-.573-.79-.573-1.401V15.683c0-.645.16-1.13.481-1.452z" fill="#fff"/><path fill-rule="evenodd" clip-rule="evenodd" d="M46.827 11.047c2.854 0 5.524.84 8.012 2.522 2.503 1.664 4.456 3.999 5.86 7.005 1.42 2.989 2.129 6.36 2.129 10.113 0 3.753-.71 7.14-2.129 10.164-1.42 3.023-3.373 5.383-5.86 7.081-2.472 1.682-5.097 2.522-7.875 2.522-2.716 0-5.265-.823-7.646-2.47-2.38-1.665-4.295-4.034-5.745-7.108-1.435-3.09-2.152-6.512-2.152-10.266 0-3.702.694-7.039 2.083-10.01 1.404-2.99 3.32-5.325 5.746-7.006 2.426-1.698 4.952-2.547 7.577-2.547zm.366 1.961c-2.976 0-5.387 1.376-7.234 4.127-1.846 2.751-2.77 7.234-2.77 13.45 0 6.742.947 11.404 2.84 13.985 1.891 2.581 4.234 3.872 7.027 3.872 1.953 0 3.67-.586 5.15-1.758 1.48-1.172 2.656-3.031 3.525-5.578.886-2.548 1.328-5.893 1.328-10.037 0-4.517-.412-8.041-1.236-10.572-.824-2.547-2-4.432-3.525-5.655-1.526-1.222-3.228-1.834-5.105-1.834z" fill="#fff"/><path d="M25.742 11.123a.437.437 0 0 0-.401.264l-1.232 2.841a.444.444 0 0 1-.686.165c-1.445-1.162-2.79-1.998-4.034-2.506a11.168 11.168 0 0 0-4.258-.84c-2.625 0-5.074.832-7.348 2.496-2.274 1.648-4.143 4.118-5.608 7.413C.725 24.251 0 27.774 0 31.528c0 3.532.702 6.784 2.106 9.756 1.42 2.955 3.304 5.222 5.654 6.801 2.366 1.58 4.96 2.37 7.783 2.37 3.48 0 6.364-1.206 8.653-3.618 2.206-2.324 3.57-5.61 4.088-9.86a.432.432 0 0 0-.43-.482h-.76a.442.442 0 0 0-.436.375c-.586 3.77-1.781 6.608-3.584 8.515-1.861 1.953-4.166 2.93-6.913 2.93-3.144 0-5.585-1.257-7.325-3.77-2.045-2.973-3.067-7.286-3.067-12.941 0-6.725.892-11.497 2.678-14.316 1.785-2.82 4.098-4.229 6.936-4.229 2.625 0 4.884 1.265 6.776 3.796 1.485 1.967 2.725 4.997 3.72 9.088a.44.44 0 0 0 .426.337h.733a.437.437 0 0 0 .437-.454l-.561-14.283a.437.437 0 0 0-.437-.42h-.735z" fill="#fff"/><path d="M331.109 9.604c-.028.148-.065.29-.11.43 2.582 1.278 4.009 3.783 4.753 6.335.671 2.297.814 4.71.726 6.506a2.401 2.401 0 0 1-.967 4.703L318.5 24.337a2.4 2.4 0 0 1 .677-4.75c.825-2.12 2.079-4.655 3.658-6.657.599-.76 1.256-1.457 1.966-2.026a3.483 3.483 0 1 1 6.308-1.3z" fill="#fff" stroke="#fff" stroke-width="3" stroke-linecap="round" stroke-linejoin="round"/><g clip-path="url(#b)"><path d="M330.522 9.493a2.885 2.885 0 1 1-5.67-1.08 2.885 2.885 0 0 1 5.67 1.08z" fill="#D6FDFF"/><path fill-rule="evenodd" clip-rule="evenodd" d="M331.109 9.604a3.483 3.483 0 1 1-6.844-1.303 3.483 3.483 0 0 1 6.844 1.303zm-3.962 2.184a2.885 2.885 0 1 0 1.08-5.67 2.885 2.885 0 0 0-1.08 5.67z" fill="#32CDD5"/><path fill-rule="evenodd" clip-rule="evenodd" d="M327.598 11.838a2.887 2.887 0 1 0-.759-5.645 2.886 2.886 0 0 1 .759 5.645z" fill="#C2EDF0"/><path d="M326.966 7.483a.495.495 0 1 1-.972-.185.495.495 0 0 1 .972.185z" fill="#fff"/><path d="M330.281 10.365c5.313 2.187 5.903 9.817 5.535 13.358l-16.615-2.432c1.48-4.553 5.768-13.114 11.08-10.926z" fill="#D94A1D"/><path fill-rule="evenodd" clip-rule="evenodd" d="m336.346 24.404.064-.62c.191-1.83.135-4.702-.657-7.415-.791-2.709-2.35-5.365-5.244-6.557-1.504-.619-2.946-.472-4.252.159-1.285.62-2.432 1.704-3.422 2.96-1.98 2.51-3.449 5.86-4.202 8.176l-.219.673 17.932 2.624zm-.53-.681-16.615-2.432c.061-.185.126-.377.195-.575 1.636-4.658 5.789-12.45 10.886-10.351 5.03 2.071 5.827 9.023 5.584 12.761-.014.21-.031.409-.05.597z" fill="#CF2727"/><path fill-rule="evenodd" clip-rule="evenodd" d="M327.027 11.183a.447.447 0 0 1-.17.61c-.894.505-3.078 2.262-4.34 5.106a.448.448 0 1 1-.819-.363c1.351-3.046 3.682-4.939 4.719-5.524a.448.448 0 0 1 .61.17z" fill="#F85A28"/><path fill-rule="evenodd" clip-rule="evenodd" d="M319.631 20.071a28.5 28.5 0 0 0-.43 1.22l8.291 1.214-7.861-2.434zm12.877 3.168 3.308.484c.368-3.541-.222-11.17-5.535-13.358a4.609 4.609 0 0 0-1.21-.321c4.42 2.834 4.213 9.534 3.437 13.195zm-2.873-9.752a.299.299 0 0 1-.172.386c-.855.327-1.946 1.082-2.978 1.916a31.902 31.902 0 0 0-2.517 2.27.3.3 0 0 1-.426-.42 32.857 32.857 0 0 1 2.567-2.315c1.038-.839 2.191-1.646 3.14-2.01a.3.3 0 0 1 .386.173z" fill="#CF2727"/><path fill-rule="evenodd" clip-rule="evenodd" d="M331.988 15.304a.299.299 0 0 1-.172.386c-.855.327-1.746.958-2.573 1.663-.786.67-1.495 1.39-2.044 1.946a7.877 7.877 0 0 1-.081.082.298.298 0 1 1-.425-.42l.084-.084c.547-.556 1.272-1.292 2.078-1.979.845-.72 1.797-1.403 2.747-1.766a.299.299 0 0 1 .386.172z" fill="#CF2727"/><path fill-rule="evenodd" clip-rule="evenodd" d="M322.673 15.349a.3.3 0 0 1 .359-.223c1.209.283 2.997 1.18 4.634 2.208 1.036.65 2.038 1.37 2.812 2.043.268-.271.513-.506.789-.719.473-.365 1.03-.663 1.948-1.014a.3.3 0 1 1 .213.558c-.886.34-1.385.613-1.796.93-.246.19-.462.395-.713.649a6.5 6.5 0 0 1 .636.696.299.299 0 1 1-.474.364 5.963 5.963 0 0 0-.579-.633l-.195.199a.3.3 0 0 1-.426-.42l.179-.182c-.73-.631-1.69-1.324-2.712-1.965-1.625-1.02-3.344-1.872-4.452-2.132a.3.3 0 0 1-.223-.36z" fill="#CF2727"/><path fill-rule="evenodd" clip-rule="evenodd" d="M325.408 13.266a.3.3 0 0 1 .411-.099c1.838 1.123 6.046 3.94 8.061 6.179a.299.299 0 0 1-.444.4c-1.951-2.167-6.09-4.945-7.929-6.069a.299.299 0 0 1-.099-.41z" fill="#CF2727"/><path d="M317.178 21.64a1.804 1.804 0 0 1 2.11-1.434l17.011 3.242a1.804 1.804 0 0 1-.676 3.544l-17.011-3.242a1.804 1.804 0 0 1-1.434-2.11z" fill="#D6FDFF"/><path fill-rule="evenodd" clip-rule="evenodd" d="m319.399 19.62 17.012 3.24a2.402 2.402 0 0 1-.9 4.719L318.5 24.337a2.402 2.402 0 0 1 .899-4.718zm-.111.586a1.804 1.804 0 1 0-.676 3.544l17.011 3.242a1.804 1.804 0 0 0 .676-3.544l-17.011-3.242z" fill="#32CDD5"/><path fill-rule="evenodd" clip-rule="evenodd" d="M318.213 22.99a.449.449 0 0 1 .525-.357l16.912 3.223a.448.448 0 0 1-.168.88l-16.912-3.222a.449.449 0 0 1-.357-.524z" fill="#fff"/></g></g><defs><clipPath id="a"><path fill="#fff" d="M0 0h345v50.454H0z"/></clipPath><clipPath id="b"><path fill="#fff" transform="rotate(10.789 158.412 1677.548)" d="M0 0h28.681v28.681H0z"/></clipPath></defs></svg>
